<svg xmlns="http://www.w3.org/2000/svg" viewBox="0 0 512 512" role="img" aria-label="Pinyin Play Town icon">
  <rect width="512" height="512" rx="104" fill="#fff7e4"/>
  <circle cx="118" cy="114" r="58" fill="#8fd3ff"/>
  <circle cx="402" cy="118" r="48" fill="#ff8fa3"/>
  <circle cx="360" cy="380" r="62" fill="#b9ead7"/>
  <path d="M56 358c56-74 126-108 210-100 82 8 144 48 190 118v80H56z" fill="#91dba7"/>
  <path d="M122 254h124v134H122z" fill="#8fd3ff" stroke="#263149" stroke-width="10" stroke-linejoin="round"/>
  <path d="M104 254l80-78 82 78z" fill="#ff8fa3" stroke="#263149" stroke-width="10" stroke-linejoin="round"/>
  <rect x="170" y="310" width="38" height="78" rx="18" fill="#fff4d8" stroke="#263149" stroke-width="8"/>
  <circle cx="330" cy="244" r="78" fill="#ffd45f" stroke="#263149" stroke-width="10"/>
  <circle cx="304" cy="224" r="9" fill="#263149"/>
  <circle cx="356" cy="224" r="9" fill="#263149"/>
  <path d="M306 270c18 18 48 18 66 0" fill="none" stroke="#263149" stroke-width="10" stroke-linecap="round"/>
  <text x="256" y="462" text-anchor="middle" font-family="Arial Rounded MT Bold, Arial, sans-serif" font-size="82" font-weight="900" fill="#263149">a</text>
</svg>
